<svg width="20" height="18" viewBox="0 0 20 18" fill="none" xmlns="http://www.w3.org/2000/svg">
<path d="M4.94 2C4.93973 2.53043 4.72877 3.03904 4.35351 3.41392C3.97825 3.78881 3.46943 3.99927 2.939 3.999C2.40857 3.99873 1.89996 3.78777 1.52508 3.41251C1.15019 3.03725 0.939734 2.52843 0.939999 1.998C0.940264 1.46757 1.15123 0.958964 1.52649 0.584079C1.90175 0.209194 2.41057 -0.00126537 2.941 -0.00100015C3.47143 -0.000734938 3.98003 0.210233 4.35492 0.585493C4.7298 0.960754 4.94026 1.46957 4.94 2ZM5 5.48H0.999999V18H5V5.48ZM11.32 5.48H7.34V18H11.28V11.43C11.28 7.77 16.05 7.43 16.05 11.43V18H20V10.07C20 3.9 12.94 4.13 11.28 7.16L11.32 5.48Z" fill="#646464"/>
</svg>
